<svg xmlns="http://www.w3.org/2000/svg" id="Layer_1" data-name="Layer 1" viewBox="0 0 500 500">
  <defs fill="#41e3ff">
    <style>
      .cls-1 {
        fill: #41e3ff;
      }
    </style>
  </defs>
  <path id="JMC" class="cls-1" d="M178.35,232.2v62.97c-.04,1.1-.31,5.65-3.98,9.46-4.06,4.21-9.24,4.35-10.2,4.36h-62.55c-3.07,0-8.6-.64-12.56-4.73-3.32-3.43-4.08-7.94-4.26-10.7v-24.77c9.64,3.5,19.28,7,28.92,10.5h34.66v-47.09h29.97Zm0-41.19h-29.97v35.34h29.97v-35.34Zm5.22,117.98h35.57v-76.78h-35.57v76.78Zm48.25-21.16c11.81,7.05,23.63,14.1,35.44,21.16l-.08-76.78h-35.36v55.63Zm67.28-96.7c-.99-.05-2.29-.1-3.82-.12-1.42-.02-2.46,0-2.65,0-1.85,0-33.26,.08-109.06,.29v34.75c0,.16,.13,.29,.29,.29h95.9c.14,.03,.21,.05,.21,.09,0,.01,0,.02-.03,.04,.04,27.4,.08,54.81,.11,82.21,0,.16,.13,.29,.29,.29h34.74c.16,0,.29-.13,.29-.29,0-33.14,0-66.28,0-99.43-.08-.82-.17-1.63-.25-2.45-.57-5.64-4.26-9.2-4.97-9.96-4.27-4.5-9.44-5.48-11.07-5.72Zm21.39,99.43c-.14,3.39,.09,10.23,4.73,14.56,4.33,4.05,10.37,3.91,13.31,3.86,12.78-.23,32.02-.07,56.53,0l20-29.89h-64.72v-46.9h-29.88c.01,19.46,.02,38.91,.03,58.37Zm-.03-64.06h29.78v-5.84l64.96-.16v-29.37c-27.22-.04-54.43-.08-81.65-.12-1.94,.27-6.04,1.13-9.2,4.48-2,2.11-4,4.6-3.98,9.46,.03,7.19,.06,14.37,.09,21.56Z" fill="#41e3ff"/>
</svg>